<svg width="80" height="80" viewBox="0 0 80 80" fill="none" xmlns="http://www.w3.org/2000/svg">
<g filter="url(#filter0_d_36_618)">
<rect x="8" y="4" width="64" height="64" rx="32" fill="#3629C7" shape-rendering="crispEdges"/>
<path fill-rule="evenodd" clip-rule="evenodd" d="M50.1818 27.6667V24.8889H53.0909V27.6667H56V30.4444H53.0909V33.2222H50.1818V30.4444H47.2727V27.6667H50.1818ZM32.6357 27.4519C32.7387 27.3151 32.8532 27.1476 32.9991 26.9218C33.0809 26.7953 33.3793 26.324 33.4281 26.2478C34.6339 24.3644 35.5104 23.5 37.0909 23.5H44.3636V26.2778H37.0909C36.9648 26.2778 36.568 26.6691 35.9101 27.6966C35.8679 27.7626 35.565 28.2409 35.4747 28.3807C35.2959 28.6574 35.1473 28.8748 34.9973 29.074C34.3453 29.9395 33.6936 30.4444 32.7273 30.4444H28.3636C27.5603 30.4444 26.9091 31.0663 26.9091 31.8333V44.3333C26.9091 45.1004 27.5603 45.7222 28.3636 45.7222H51.6364C52.4397 45.7222 53.0909 45.1004 53.0909 44.3333V36H56V44.3333C56 46.6345 54.0463 48.5 51.6364 48.5H28.3636C25.9537 48.5 24 46.6345 24 44.3333V31.8333C24 29.5321 25.9537 27.6667 28.3636 27.6667H32.4599C32.5083 27.6138 32.5677 27.5421 32.6357 27.4519ZM40 44.3333C35.9834 44.3333 32.7273 41.2242 32.7273 37.3889C32.7273 33.5536 35.9834 30.4444 40 30.4444C44.0166 30.4444 47.2727 33.5536 47.2727 37.3889C47.2727 41.2242 44.0166 44.3333 40 44.3333ZM40 41.5556C42.41 41.5556 44.3636 39.6901 44.3636 37.3889C44.3636 35.0877 42.41 33.2222 40 33.2222C37.59 33.2222 35.6364 35.0877 35.6364 37.3889C35.6364 39.6901 37.59 41.5556 40 41.5556Z" fill="#EEF4FC"/>
</g>
<defs>
<filter id="filter0_d_36_618" x="0" y="0" width="80" height="80" filterUnits="userSpaceOnUse" color-interpolation-filters="sRGB">
<feFlood flood-opacity="0" result="BackgroundImageFix"/>
<feColorMatrix in="SourceAlpha" type="matrix" values="0 0 0 0 0 0 0 0 0 0 0 0 0 0 0 0 0 0 127 0" result="hardAlpha"/>
<feOffset dy="4"/>
<feGaussianBlur stdDeviation="4"/>
<feComposite in2="hardAlpha" operator="out"/>
<feColorMatrix type="matrix" values="0 0 0 0 0 0 0 0 0 0 0 0 0 0 0 0 0 0 0.25 0"/>
<feBlend mode="normal" in2="BackgroundImageFix" result="effect1_dropShadow_36_618"/>
<feBlend mode="normal" in="SourceGraphic" in2="effect1_dropShadow_36_618" result="shape"/>
</filter>
</defs>
</svg>
