<svg width="175" height="58" viewBox="0 0 175 58" fill="none" xmlns="http://www.w3.org/2000/svg">
<path d="M1.08 32.4C1.08 30.432 1.368 28.644 1.944 27.036C2.544 25.404 3.372 24.012 4.428 22.86C5.484 21.708 6.756 20.82 8.244 20.196C9.756 19.572 11.424 19.26 13.248 19.26C15.288 19.26 17.1 19.62 18.684 20.34C20.292 21.036 21.504 22.128 22.32 23.616L18.324 25.992C17.964 24.312 17.352 23.04 16.488 22.176C15.624 21.312 14.544 20.88 13.248 20.88C12.216 20.88 11.268 21.156 10.404 21.708C9.54 22.26 8.808 23.04 8.208 24.048C7.608 25.056 7.14 26.268 6.804 27.684C6.468 29.1 6.3 30.672 6.3 32.4C6.3 34.128 6.468 35.7 6.804 37.116C7.14 38.532 7.608 39.744 8.208 40.752C8.808 41.76 9.54 42.54 10.404 43.092C11.268 43.644 12.216 43.92 13.248 43.92C14.544 43.92 15.6 43.5 16.416 42.66C17.256 41.796 18.012 40.512 18.684 38.808L22.68 41.184C22.272 41.928 21.744 42.576 21.096 43.128C20.448 43.656 19.704 44.1 18.864 44.46C18.048 44.82 17.16 45.084 16.2 45.252C15.24 45.444 14.256 45.54 13.248 45.54C11.424 45.54 9.756 45.228 8.244 44.604C6.756 43.98 5.484 43.092 4.428 41.94C3.372 40.788 2.544 39.408 1.944 37.8C1.368 36.168 1.08 34.368 1.08 32.4ZM25.2141 19.8H30.2541V40.284C30.6861 39.732 31.2501 39.288 31.9461 38.952C32.6661 38.592 33.5541 38.412 34.6101 38.412C35.6661 38.412 36.6381 38.52 37.5261 38.736C38.4141 38.952 39.1701 39.312 39.7941 39.816C40.4181 40.32 40.8981 40.992 41.2341 41.832C41.5941 42.672 41.7741 43.728 41.7741 45H39.6141C39.6141 43.368 39.1821 42.132 38.3181 41.292C37.4541 40.452 36.2301 40.032 34.6461 40.032C33.8301 40.032 33.1461 40.2 32.5941 40.536C32.0421 40.848 31.5861 41.256 31.2261 41.76C30.8901 42.264 30.6381 42.804 30.4701 43.38C30.3261 43.956 30.2541 44.496 30.2541 45H25.2141V19.8ZM41.0175 32.4C41.0175 30.432 41.3055 28.644 41.8815 27.036C42.4815 25.404 43.3095 24.012 44.3655 22.86C45.4215 21.708 46.6935 20.82 48.1815 20.196C49.6935 19.572 51.3615 19.26 53.1855 19.26C55.0095 19.26 56.6655 19.572 58.1535 20.196C59.6655 20.82 60.9495 21.708 62.0055 22.86C63.0615 24.012 63.8775 25.404 64.4535 27.036C65.0535 28.644 65.3535 30.432 65.3535 32.4C65.3535 34.368 65.0535 36.168 64.4535 37.8C63.8775 39.408 63.0615 40.788 62.0055 41.94C60.9495 43.092 59.6655 43.98 58.1535 44.604C56.6655 45.228 55.0095 45.54 53.1855 45.54C51.3615 45.54 49.6935 45.228 48.1815 44.604C46.6935 43.98 45.4215 43.092 44.3655 41.94C43.3095 40.788 42.4815 39.408 41.8815 37.8C41.3055 36.168 41.0175 34.368 41.0175 32.4ZM46.2375 32.4C46.2375 34.128 46.4055 35.7 46.7415 37.116C47.0775 38.532 47.5455 39.744 48.1455 40.752C48.7455 41.76 49.4775 42.54 50.3415 43.092C51.2055 43.644 52.1535 43.92 53.1855 43.92C54.2415 43.92 55.1895 43.644 56.0295 43.092C56.8935 42.54 57.6255 41.76 58.2255 40.752C58.8255 39.744 59.2935 38.532 59.6295 37.116C59.9655 35.7 60.1335 34.128 60.1335 32.4C60.1335 30.672 59.9655 29.1 59.6295 27.684C59.2935 26.268 58.8255 25.056 58.2255 24.048C57.6255 23.04 56.8935 22.26 56.0295 21.708C55.1895 21.156 54.2415 20.88 53.1855 20.88C52.1535 20.88 51.2055 21.156 50.3415 21.708C49.4775 22.26 48.7455 23.04 48.1455 24.048C47.5455 25.056 47.0775 26.268 46.7415 27.684C46.4055 29.1 46.2375 30.672 46.2375 32.4ZM54.0855 36.504C54.0135 36.96 53.7255 37.188 53.2215 37.188C52.6935 37.188 52.3935 36.96 52.3215 36.504C52.1055 35.544 51.7455 34.812 51.2415 34.308C50.7375 33.804 50.0175 33.456 49.0815 33.264C48.6255 33.192 48.3975 32.904 48.3975 32.4C48.3975 31.872 48.6255 31.572 49.0815 31.5C50.0415 31.284 50.7735 30.924 51.2775 30.42C51.7815 29.916 52.1295 29.196 52.3215 28.26C52.3935 27.804 52.6935 27.576 53.2215 27.576C53.7255 27.576 54.0135 27.804 54.0855 28.26C54.3015 29.22 54.6615 29.952 55.1655 30.456C55.6695 30.96 56.3895 31.308 57.3255 31.5C57.7815 31.572 58.0095 31.872 58.0095 32.4C58.0095 32.904 57.7815 33.192 57.3255 33.264C56.3655 33.48 55.6335 33.84 55.1295 34.344C54.6255 34.848 54.2775 35.568 54.0855 36.504ZM75.5533 34.272C74.0653 33.624 72.8413 33 71.8813 32.4C70.9453 31.776 70.2133 31.152 69.6853 30.528C69.1573 29.88 68.7973 29.22 68.6053 28.548C68.4133 27.876 68.3173 27.156 68.3173 26.388C68.3173 25.116 68.5333 24.036 68.9653 23.148C69.3973 22.236 69.9613 21.492 70.6573 20.916C71.3773 20.34 72.1813 19.92 73.0693 19.656C73.9813 19.392 74.9053 19.26 75.8413 19.26C78.5053 19.26 80.6053 19.62 82.1413 20.34C83.6773 21.036 84.7933 22.128 85.4893 23.616L81.4933 25.992C81.2293 25.152 80.9413 24.42 80.6293 23.796C80.3173 23.148 79.9453 22.608 79.5133 22.176C79.0813 21.744 78.5653 21.42 77.9653 21.204C77.3653 20.988 76.6453 20.88 75.8053 20.88C74.3413 20.88 73.1773 21.228 72.3133 21.924C71.4493 22.62 71.0173 23.544 71.0173 24.696C71.0173 25.44 71.2333 26.064 71.6653 26.568C72.1213 27.048 72.6853 27.456 73.3573 27.792C74.0293 28.128 74.7493 28.428 75.5173 28.692C76.3093 28.932 77.0293 29.184 77.6773 29.448C79.2373 30.072 80.5333 30.684 81.5653 31.284C82.5973 31.86 83.4133 32.484 84.0133 33.156C84.6373 33.804 85.0693 34.524 85.3093 35.316C85.5733 36.084 85.7053 36.984 85.7053 38.016C85.7053 39.24 85.4893 40.32 85.0573 41.256C84.6493 42.192 84.0973 42.984 83.4013 43.632C82.7053 44.256 81.9133 44.724 81.0253 45.036C80.1373 45.372 79.2133 45.54 78.2533 45.54C75.3253 45.54 72.9853 45.192 71.2333 44.496C69.4813 43.776 68.2453 42.672 67.5253 41.184L71.5213 38.808C71.7853 39.648 72.0733 40.392 72.3853 41.04C72.7213 41.664 73.1173 42.192 73.5733 42.624C74.0293 43.056 74.5453 43.38 75.1213 43.596C75.7213 43.812 76.4293 43.92 77.2453 43.92C78.3013 43.92 79.1893 43.812 79.9093 43.596C80.6533 43.356 81.2533 43.056 81.7093 42.696C82.1653 42.312 82.4893 41.868 82.6813 41.364C82.8973 40.86 83.0053 40.332 83.0053 39.78C83.0053 39.108 82.8973 38.568 82.6813 38.16C82.4653 37.752 82.0813 37.368 81.5293 37.008C80.9773 36.648 80.2213 36.264 79.2613 35.856C78.3013 35.448 77.0653 34.92 75.5533 34.272ZM87.8808 32.4C87.8808 30.432 88.1688 28.644 88.7448 27.036C89.3448 25.404 90.1728 24.012 91.2288 22.86C92.2848 21.708 93.5568 20.82 95.0448 20.196C96.5568 19.572 98.2248 19.26 100.049 19.26C102.089 19.26 103.901 19.62 105.485 20.34C107.093 21.036 108.305 22.128 109.121 23.616L105.125 25.992C104.765 24.312 104.153 23.04 103.289 22.176C102.425 21.312 101.345 20.88 100.049 20.88C99.0648 20.88 98.1648 21.132 97.3488 21.636C96.5328 22.116 95.8248 22.812 95.2248 23.724C94.6248 24.612 94.1448 25.692 93.7848 26.964C93.4248 28.212 93.2088 29.616 93.1368 31.176C93.8328 30.192 94.7208 29.412 95.8008 28.836C96.9048 28.26 98.1768 27.972 99.6168 27.972C100.745 27.972 101.693 28.14 102.461 28.476C103.229 28.788 103.853 29.208 104.333 29.736C104.837 30.24 105.197 30.828 105.413 31.5C105.629 32.148 105.737 32.796 105.737 33.444H104.297C104.297 32.94 104.213 32.46 104.045 32.004C103.877 31.524 103.601 31.116 103.217 30.78C102.833 30.42 102.317 30.132 101.669 29.916C101.045 29.7 100.265 29.592 99.3288 29.592C98.4408 29.592 97.6488 29.796 96.9528 30.204C96.2808 30.588 95.6928 31.104 95.1888 31.752C94.7088 32.376 94.3248 33.084 94.0368 33.876C93.7488 34.644 93.5448 35.412 93.4248 36.18C93.8328 38.58 94.6128 40.476 95.7648 41.868C96.9408 43.236 98.3688 43.92 100.049 43.92C101.345 43.92 102.401 43.5 103.217 42.66C104.057 41.796 104.813 40.512 105.485 38.808L109.481 41.184C109.073 41.928 108.545 42.576 107.897 43.128C107.249 43.656 106.505 44.1 105.665 44.46C104.849 44.82 103.961 45.084 103.001 45.252C102.041 45.444 101.057 45.54 100.049 45.54C98.2248 45.54 96.5568 45.228 95.0448 44.604C93.5568 43.98 92.2848 43.092 91.2288 41.94C90.1728 40.788 89.3448 39.408 88.7448 37.8C88.1688 36.168 87.8808 34.368 87.8808 32.4ZM110.935 19.8H127.855V21.24H121.915V45H116.875V21.24H110.935V19.8ZM129.663 19.8H134.703V45H129.663V19.8ZM137.952 44.604V29.664C137.952 27.936 138.204 26.424 138.708 25.128C139.236 23.832 139.968 22.752 140.904 21.888C141.864 21.024 143.004 20.376 144.324 19.944C145.668 19.488 147.156 19.26 148.788 19.26C150.612 19.26 152.244 19.62 153.684 20.34C155.124 21.036 156.252 22.128 157.068 23.616L153.072 25.992C152.232 22.584 150.612 20.88 148.212 20.88C146.7 20.88 145.452 21.564 144.468 22.932C143.484 24.3 142.992 26.412 142.992 29.268V30.96C143.712 30.048 144.6 29.328 145.656 28.8C146.712 28.248 147.936 27.972 149.328 27.972C150.456 27.972 151.404 28.14 152.172 28.476C152.94 28.788 153.564 29.208 154.044 29.736C154.548 30.24 154.908 30.828 155.124 31.5C155.34 32.148 155.448 32.796 155.448 33.444H154.008C154.008 32.94 153.924 32.46 153.756 32.004C153.588 31.524 153.312 31.116 152.928 30.78C152.544 30.42 152.028 30.132 151.38 29.916C150.756 29.7 149.976 29.592 149.04 29.592C147.984 29.592 147.072 29.868 146.304 30.42C145.536 30.972 144.9 31.656 144.396 32.472C143.916 33.288 143.556 34.176 143.316 35.136C143.1 36.072 142.992 36.948 142.992 37.764V44.604H137.952ZM163.037 19.8L166.133 32.364H166.961C167.945 32.364 168.737 32.232 169.337 31.968C169.937 31.704 170.417 31.356 170.777 30.924C171.137 30.492 171.401 29.988 171.569 29.412C171.761 28.836 171.905 28.224 172.001 27.576L173.261 19.8H174.701L173.369 27.936C173.273 28.536 173.153 29.136 173.009 29.736C172.865 30.336 172.637 30.888 172.325 31.392C172.013 31.896 171.569 32.34 170.993 32.724C170.441 33.108 169.697 33.396 168.761 33.588V45H163.721V33.804H161.237L157.781 19.8H163.037Z" fill="#262626"/>
</svg>
