<svg width="32" height="25" viewBox="0 0 32 25" fill="none" xmlns="http://www.w3.org/2000/svg">
<g id="icon / camera">
<path id="Vector" fill-rule="evenodd" clip-rule="evenodd" d="M26.1818 4.16667V1.38889H29.0909V4.16667H32V6.94444H29.0909V9.72222H26.1818V6.94444H23.2727V4.16667H26.1818ZM8.63566 3.95191C8.73872 3.81511 8.85317 3.64765 8.99912 3.42183C9.0809 3.2953 9.3793 2.82398 9.42808 2.74779C10.6339 0.864427 11.5104 0 13.0909 0H20.3636V2.77778H13.0909C12.9648 2.77778 12.568 3.16906 11.9101 4.19665C11.8679 4.26261 11.565 4.74095 11.4747 4.88068C11.2959 5.15739 11.1473 5.37483 10.9973 5.57397C10.3453 6.43945 9.69359 6.94444 8.72727 6.94444H4.36364C3.56031 6.94444 2.90909 7.56627 2.90909 8.33333V20.8333C2.90909 21.6004 3.56031 22.2222 4.36364 22.2222H27.6364C28.4397 22.2222 29.0909 21.6004 29.0909 20.8333V12.5H32V20.8333C32 23.1345 30.0463 25 27.6364 25H4.36364C1.95367 25 0 23.1345 0 20.8333V8.33333C0 6.03215 1.95367 4.16667 4.36364 4.16667H8.45992C8.50835 4.1138 8.56771 4.04212 8.63566 3.95191ZM16 20.8333C11.9834 20.8333 8.72727 17.7242 8.72727 13.8889C8.72727 10.0536 11.9834 6.94444 16 6.94444C20.0166 6.94444 23.2727 10.0536 23.2727 13.8889C23.2727 17.7242 20.0166 20.8333 16 20.8333ZM16 18.0556C18.41 18.0556 20.3636 16.1901 20.3636 13.8889C20.3636 11.5877 18.41 9.72222 16 9.72222C13.59 9.72222 11.6364 11.5877 11.6364 13.8889C11.6364 16.1901 13.59 18.0556 16 18.0556Z" fill="#EEF4FC"/>
</g>
</svg>
