<svg width="24" height="25" viewBox="0 0 24 25" fill="none" xmlns="http://www.w3.org/2000/svg">
<g id="icon / filter">
<path id="Vector" fill-rule="evenodd" clip-rule="evenodd" d="M3.77728 6.71427H2.5715C2.09812 6.71427 1.71436 6.33051 1.71436 5.85713C1.71436 5.38374 2.09812 4.99998 2.5715 4.99998H3.77728C4.13881 3.88087 5.1892 3.07141 6.42864 3.07141C7.66809 3.07141 8.7185 3.88087 9.08004 4.99998H21.4286C21.902 4.99998 22.2858 5.38374 22.2858 5.85713C22.2858 6.33051 21.902 6.71427 21.4286 6.71427H9.08004C8.7185 7.83338 7.66809 8.64284 6.42864 8.64284C5.1892 8.64284 4.13881 7.83338 3.77728 6.71427ZM4.92864 5.85713C4.92864 5.0287 5.60021 4.35713 6.42864 4.35713C7.25707 4.35713 7.92864 5.0287 7.92864 5.85713C7.92864 6.68555 7.25707 7.35713 6.42864 7.35713C5.60021 7.35713 4.92864 6.68555 4.92864 5.85713Z" fill="#2F3F77"/>
<path id="Vector_2" fill-rule="evenodd" clip-rule="evenodd" d="M2.5715 13.5714H14.9536C15.3152 14.6905 16.3655 15.5 17.605 15.5C18.8444 15.5 19.8948 14.6905 20.2563 13.5714H21.4286C21.902 13.5714 22.2858 13.1877 22.2858 12.7143C22.2858 12.2409 21.902 11.8572 21.4286 11.8572H20.2563C19.8948 10.7381 18.8444 9.92859 17.605 9.92859C16.3655 9.92859 15.3152 10.7381 14.9536 11.8572H2.5715C2.09812 11.8572 1.71436 12.2409 1.71436 12.7143C1.71436 13.1877 2.09812 13.5714 2.5715 13.5714ZM17.605 11.2143C16.7766 11.2143 16.105 11.8859 16.105 12.7143C16.105 13.5427 16.7766 14.2143 17.605 14.2143C18.4334 14.2143 19.105 13.5427 19.105 12.7143C19.105 11.8859 18.4334 11.2143 17.605 11.2143Z" fill="#2F3F77"/>
<path id="Vector_3" fill-rule="evenodd" clip-rule="evenodd" d="M8.9201 20.4286H2.5715C2.09812 20.4286 1.71436 20.0449 1.71436 19.5715C1.71436 19.0981 2.09812 18.7143 2.5715 18.7143H8.9201C9.28164 17.5953 10.3321 16.7858 11.5715 16.7858C12.8109 16.7858 13.8614 17.5953 14.2229 18.7143H21.4286C21.902 18.7143 22.2858 19.0981 22.2858 19.5715C22.2858 20.0449 21.902 20.4286 21.4286 20.4286H14.2229C13.8614 21.5477 12.8109 22.3572 11.5715 22.3572C10.3321 22.3572 9.28164 21.5477 8.9201 20.4286ZM10.0715 19.5715C10.0715 18.7431 10.7431 18.0715 11.5715 18.0715C12.3999 18.0715 13.0715 18.7431 13.0715 19.5715C13.0715 20.3999 12.3999 21.0715 11.5715 21.0715C10.7431 21.0715 10.0715 20.3999 10.0715 19.5715Z" fill="#2F3F77"/>
</g>
</svg>
