<svg width="35" height="35" viewBox="0 0 35 35" fill="none" xmlns="http://www.w3.org/2000/svg">
<rect width="35" height="35" rx="17.5" fill="white"/>
<path d="M26.8735 25.439H8.15918C6.69124 25.4372 5.50179 24.2478 5.5 22.7801V22.7798C5.50234 21.7204 6.11609 20.8048 7.00704 20.367L7.02287 20.3599L7.03888 20.3524L17.5142 15.6108L27.9798 20.36C28.8862 20.7997 29.5 21.713 29.5 22.7696C29.5 24.2285 28.3298 25.4141 26.8768 25.439H26.8745L26.8735 25.439ZM7.70742 21.8081C7.34637 21.9885 7.10262 22.3551 7.10189 22.7787V22.7788C7.10189 23.363 7.5751 23.8365 8.15906 23.8371H26.8638C27.4399 23.8258 27.9028 23.3573 27.9051 22.7801V22.7799C27.905 22.3551 27.6606 21.9875 27.3048 21.8098L27.2985 21.807L17.5141 17.3687L7.70742 21.8081ZM18.3151 16.4898H16.7132V16.178C16.766 15.0263 17.3656 14.025 18.2568 13.4221L18.2692 13.4142C18.5886 13.1871 18.7945 12.8183 18.7945 12.4015C18.7945 11.7174 18.2398 11.1627 17.5556 11.1627C16.8715 11.1627 16.3168 11.7173 16.3168 12.4015C16.3168 12.408 16.3169 12.4145 16.317 12.4209V12.42L14.7151 12.4435C14.7149 12.431 14.7148 12.4164 14.7148 12.4017C14.7148 10.8328 15.9866 9.56098 17.5554 9.56098C19.1243 9.56098 20.3962 10.8328 20.3962 12.4016C20.3962 13.3638 19.9178 14.2142 19.186 14.7281L19.1769 14.7342L19.1619 14.7438C18.6732 15.0722 18.3474 15.6105 18.3142 16.2266L18.314 16.2314L18.3151 16.4898Z" fill="#3629C7"/>
</svg>
