<svg width="36" height="12" viewBox="0 0 36 12" fill="none" xmlns="http://www.w3.org/2000/svg">
<path d="M5.99985 -0.000341415C4.86452 -0.00025177 3.75252 0.321936 2.79299 0.9288C1.83347 1.53566 1.0658 2.4023 0.579163 3.42804C0.0925231 4.45379 -0.0931201 5.59655 0.0437955 6.72359C0.180711 7.85064 0.634566 8.91571 1.35265 9.7951C2.07073 10.6745 3.02356 11.3321 4.10048 11.6916C5.1774 12.0511 6.3342 12.0976 7.43653 11.8259C8.53886 11.5541 9.54147 10.9752 10.3279 10.1564C11.1144 9.33758 11.6524 8.31244 11.8794 7.20005L33.1183 7.20005C33.4371 7.19991 33.7528 7.13643 34.0469 7.01329L35.847 6.258C35.8933 6.23269 35.9319 6.19537 35.9589 6.14997C35.9858 6.10458 36 6.05277 36 5.99998C36 5.9472 35.9858 5.89539 35.9589 5.84999C35.9319 5.80459 35.8933 5.76728 35.847 5.74197L34.0469 4.98668C33.7528 4.86354 33.4371 4.80005 33.1183 4.79992L11.8794 4.79992C11.6011 3.44557 10.8643 2.22861 9.79329 1.35419C8.72226 0.479775 7.3825 0.00137997 5.99985 -0.000341415ZM5.99985 4.19988C5.99985 4.55591 5.89428 4.90394 5.69648 5.19996C5.49868 5.49599 5.21755 5.72671 4.88862 5.86296C4.5597 5.9992 4.19776 6.03485 3.84857 5.96539C3.49939 5.89594 3.17864 5.72449 2.92689 5.47274C2.67515 5.221 2.5037 4.90025 2.43425 4.55106C2.36479 4.20188 2.40044 3.83994 2.53668 3.51102C2.67293 3.18209 2.90365 2.90096 3.19967 2.70316C3.4957 2.50536 3.84373 2.39979 4.19976 2.39979C4.67717 2.39979 5.13503 2.58944 5.47262 2.92702C5.8102 3.26461 5.99985 3.72247 5.99985 4.19988Z" fill="#262626"/>
</svg>
