<svg width="39" height="26" viewBox="0 0 39 26" fill="none" xmlns="http://www.w3.org/2000/svg">
<path d="M6.85 5.95V6.75H7.65H12.75C12.7633 6.75 12.776 6.75527 12.7854 6.76464C12.7947 6.77402 12.8 6.78674 12.8 6.8C12.8 6.81326 12.7947 6.82598 12.7854 6.83536C12.776 6.84473 12.7633 6.85 12.75 6.85H7.65H6.85V7.65V12.75C6.85 12.7633 6.84473 12.776 6.83536 12.7854C6.82598 12.7947 6.81326 12.8 6.8 12.8C6.78674 12.8 6.77402 12.7947 6.76464 12.7854C6.75527 12.776 6.75 12.7633 6.75 12.75V7.65V6.85H5.95H0.85C0.836739 6.85 0.824022 6.84473 0.814645 6.83536C0.805268 6.82598 0.8 6.81326 0.8 6.8C0.8 6.78674 0.805268 6.77402 0.814644 6.76465C0.824022 6.75527 0.836739 6.75 0.85 6.75H5.95H6.75V5.95V0.85C6.75 0.836739 6.75527 0.824022 6.76464 0.814645C6.77402 0.805268 6.78674 0.8 6.8 0.8C6.81326 0.8 6.82598 0.805268 6.83536 0.814644C6.84473 0.824022 6.85 0.836739 6.85 0.85V5.95Z" stroke="#EEF4FC" stroke-width="1.6"/>
<path d="M34.3726 25.6H5.67738C3.42654 25.5972 1.60272 23.7994 1.59998 21.5809V21.5806C1.60356 19.9791 2.54464 18.5952 3.91076 17.9334L3.93504 17.9228L3.9596 17.9115L20.0217 10.7445L36.069 17.9229C37.4588 18.5875 38.4 19.9679 38.4 21.565C38.4 23.7702 36.6057 25.5622 34.3778 25.5999H34.3743L34.3726 25.6ZM4.98468 20.1117C4.43108 20.3845 4.05733 20.9386 4.0562 21.5788V21.579C4.0562 22.462 4.7818 23.1778 5.67721 23.1787H34.3579C35.2412 23.1615 35.9509 22.4534 35.9544 21.581V21.5806C35.9543 20.9386 35.5795 20.383 35.034 20.1144L35.0243 20.1101L20.0216 13.4015L4.98468 20.1117ZM21.2498 12.0731H18.7936V11.6017C18.8745 9.86085 19.7939 8.34745 21.1604 7.4361L21.1794 7.42413C21.6692 7.08087 21.9848 6.52349 21.9848 5.89346C21.9848 4.85937 21.1344 4.02102 20.0853 4.02102C19.0362 4.02102 18.1858 4.85934 18.1858 5.89349C18.1858 5.90334 18.1859 5.91312 18.186 5.92287V5.92138L15.7297 5.95689C15.7294 5.93809 15.7293 5.91597 15.7293 5.89377C15.7293 3.52236 17.6794 1.59998 20.085 1.59998C22.4906 1.59998 24.4407 3.52236 24.4407 5.8937C24.4407 7.34804 23.7072 8.63349 22.5851 9.41025L22.5712 9.41934L22.5483 9.4339C21.7989 9.93028 21.2993 10.7439 21.2484 11.6752L21.2481 11.6825L21.2498 12.0731Z" fill="#EEF4FC"/>
</svg>
