<svg width="80" height="80" viewBox="0 0 80 80" fill="none" xmlns="http://www.w3.org/2000/svg">
<g filter="url(#filter0_d_23_61)">
<rect x="8" y="4" width="64" height="64" rx="32" fill="#3629C7" shape-rendering="crispEdges"/>
<path d="M27.65 29.15V29.95H28.45H33.55C33.5633 29.95 33.576 29.9553 33.5854 29.9647C33.5948 29.974 33.6 29.9868 33.6 30C33.6 30.0133 33.5948 30.026 33.5854 30.0354C33.576 30.0447 33.5633 30.05 33.55 30.05H28.45H27.65V30.85V35.95C27.65 35.9633 27.6448 35.976 27.6354 35.9854C27.626 35.9947 27.6133 36 27.6 36C27.5868 36 27.5741 35.9947 27.5647 35.9854C27.5553 35.976 27.55 35.9633 27.55 35.95V30.85V30.05H26.75H21.65C21.6368 30.05 21.6241 30.0447 21.6147 30.0354C21.6053 30.026 21.6 30.0133 21.6 30C21.6 29.9868 21.6053 29.974 21.6147 29.9647C21.6241 29.9553 21.6368 29.95 21.65 29.95H26.75H27.55V29.15V24.05C27.55 24.0368 27.5553 24.024 27.5647 24.0147C27.5741 24.0053 27.5868 24 27.6 24C27.6133 24 27.626 24.0053 27.6354 24.0147C27.6448 24.024 27.65 24.0368 27.65 24.05V29.15Z" stroke="#EEF4FC" stroke-width="1.6"/>
<path d="M55.1728 48.8H26.4776C24.2267 48.7972 22.4029 46.9994 22.4001 44.781V44.7806C22.4037 43.1792 23.3448 41.7953 24.7109 41.1335L24.7352 41.1229L24.7598 41.1115L40.8219 33.9445L56.8692 41.1229C58.259 41.7876 59.2001 43.168 59.2001 44.7651C59.2001 46.9702 57.4059 48.7623 55.178 48.7999H55.1745L55.1728 48.8ZM25.7849 43.3117C25.2313 43.5845 24.8575 44.1386 24.8564 44.7789V44.779C24.8564 45.662 25.582 46.3778 26.4774 46.3787H55.158C56.0413 46.3616 56.7511 45.6534 56.7546 44.781V44.7807C56.7544 44.1387 56.3797 43.583 55.8342 43.3144L55.8245 43.3101L40.8218 36.6015L25.7849 43.3117ZM42.0499 35.2731H39.5937V34.8017C39.6747 33.0609 40.5941 31.5475 41.9606 30.6361L41.9796 30.6242C42.4693 30.2809 42.785 29.7235 42.785 29.0935C42.785 28.0594 41.9346 27.2211 40.8855 27.2211C39.8364 27.2211 38.986 28.0594 38.986 29.0935C38.986 29.1034 38.9861 29.1132 38.9862 29.1229V29.1214L36.5299 29.1569C36.5296 29.1381 36.5295 29.116 36.5295 29.0938C36.5295 26.7224 38.4796 24.8 40.8852 24.8C43.2907 24.8 45.2409 26.7224 45.2409 29.0937C45.2409 30.5481 44.5074 31.8335 43.3853 32.6103L43.3714 32.6194L43.3484 32.6339C42.5991 33.1303 42.0995 33.944 42.0486 34.8752L42.0482 34.8825L42.0499 35.2731Z" fill="#EEF4FC"/>
</g>
<defs>
<filter id="filter0_d_23_61" x="0" y="0" width="80" height="80" filterUnits="userSpaceOnUse" color-interpolation-filters="sRGB">
<feFlood flood-opacity="0" result="BackgroundImageFix"/>
<feColorMatrix in="SourceAlpha" type="matrix" values="0 0 0 0 0 0 0 0 0 0 0 0 0 0 0 0 0 0 127 0" result="hardAlpha"/>
<feOffset dy="4"/>
<feGaussianBlur stdDeviation="4"/>
<feComposite in2="hardAlpha" operator="out"/>
<feColorMatrix type="matrix" values="0 0 0 0 0 0 0 0 0 0 0 0 0 0 0 0 0 0 0.25 0"/>
<feBlend mode="normal" in2="BackgroundImageFix" result="effect1_dropShadow_23_61"/>
<feBlend mode="normal" in="SourceGraphic" in2="effect1_dropShadow_23_61" result="shape"/>
</filter>
</defs>
</svg>
